<?xml version="1.0" standalone="no"?>
<!DOCTYPE svg PUBLIC "-//W3C//DTD SVG 20010904//EN"
 "http://www.w3.org/TR/2001/REC-SVG-20010904/DTD/svg10.dtd">
<svg version="1.0" xmlns="http://www.w3.org/2000/svg"
 width="500.000000pt" height="500.000000pt" viewBox="0 0 500.000000 500.000000"
 preserveAspectRatio="xMidYMid meet">
<metadata>
Created by potrace 1.14, written by Peter Selinger 2001-2017
</metadata>
<g transform="translate(0.000000,500.000000) scale(0.100000,-0.100000)"
fill="#000000" stroke="none">
<path d="M2417 4874 c-1 -1 -51 -4 -112 -7 -679 -38 -1372 -433 -1776 -1012
-215 -309 -354 -663 -410 -1051 -18 -129 -21 -178 -16 -378 3 -127 7 -240 10
-251 2 -11 10 -54 17 -95 68 -422 272 -852 562 -1183 399 -456 952 -741 1563
-806 87 -9 475 -7 525 2 14 3 59 11 100 17 399 63 792 237 1115 496 456 365
758 878 866 1469 18 98 22 167 25 375 2 140 0 278 -5 305 -5 28 -14 84 -21
125 -74 473 -312 934 -664 1286 -141 140 -243 223 -402 328 -318 207 -706 342
-1072 372 -63 5 -301 11 -305 8z"/>
</g>
</svg>
